<svg height="512pt" viewBox="0 -17 512 512" width="512pt" xmlns="http://www.w3.org/2000/svg"><path d="m503.464844 477.867188h-136.53125c-4.710938 0-8.535156-3.824219-8.535156-8.535157 0-23.167969 11.847656-35.925781 33.359374-35.925781.835938 0 1.671876.054688 2.507813.15625 8.824219-15.71875 22.84375-23.960938 40.933594-23.960938 18.089843 0 32.113281 8.242188 40.933593 23.960938.835938-.101562 1.675782-.15625 2.511719-.15625 21.511719 0 33.355469 12.757812 33.355469 35.925781 0 4.710938-3.824219 8.535157-8.535156 8.535157zm-127.144532-17.066407h117.757813c-2.019531-8.390625-7.558594-10.324219-15.433594-10.324219-.898437 0-2.015625.324219-3.421875.980469-2.109375.996094-4.53125 1.074219-6.707031.230469-2.175781-.847656-3.910156-2.535156-4.796875-4.6875-5.769531-13.875-14.832031-20.332031-28.519531-20.332031s-22.75 6.457031-28.507813 20.332031c-.890625 2.152344-2.628906 3.851562-4.796875 4.6875-2.175781.835938-4.597656.75-6.707031-.230469-1.410156-.667969-2.527344-.980469-3.421875-.980469-7.886719 0-13.421875 1.933594-15.445313 10.324219zm0 0"/><path d="m256 477.867188h-136.535156c-4.707032 0-8.53125-3.824219-8.53125-8.535157 0-23.167969 11.84375-35.925781 33.355468-35.925781.835938 0 1.671876.054688 2.511719.15625 8.820313-15.71875 22.84375-23.960938 40.933594-23.960938s32.109375 8.242188 40.933594 23.960938c.835937-.101562 1.671875-.15625 2.507812-.15625 21.511719 0 33.359375 12.757812 33.359375 35.925781 0 4.710938-3.824218 8.535157-8.535156 8.535157zm-127.148438-17.066407h117.761719c-2.023437-8.390625-7.558593-10.324219-15.4375-10.324219-.894531 0-2.011719.324219-3.421875.980469-2.105468.996094-4.53125 1.074219-6.707031.230469-2.175781-.847656-3.90625-2.535156-4.796875-4.6875-5.765625-13.875-14.828125-20.332031-28.515625-20.332031s-22.75 6.457031-28.511719 20.332031c-.886718 2.152344-2.628906 3.851562-4.796875 4.6875-2.175781.835938-4.597656.75-6.707031-.230469-1.40625-.667969-2.523438-.980469-3.421875-.980469-7.882813 0-13.421875 1.933594-15.445313 10.324219zm0 0"/><path d="m59.734375 401.066406c-28.238281 0-51.199219-22.964844-51.199219-51.199218v-110.933594c0-28.238282 22.960938-51.199219 51.199219-51.199219 28.234375 0 51.199219 22.960937 51.199219 51.199219v110.933594c0 28.234374-22.964844 51.199218-51.199219 51.199218zm0-196.265625c-18.824219 0-34.132813 15.308594-34.132813 34.132813v110.933594c0 18.824218 15.308594 34.132812 34.132813 34.132812s34.132813-15.308594 34.132813-34.132812v-110.933594c0-18.824219-15.308594-34.132813-34.132813-34.132813zm0 0"/><path d="m59.734375 332.800781c-2.1875 0-4.371094-.835937-6.035156-2.5-3.335938-3.335937-3.335938-8.730469 0-12.066406l17.066406-17.066406c3.335937-3.335938 8.730469-3.335938 12.066406 0 3.335938 3.335937 3.335938 8.730469 0 12.066406l-17.066406 17.066406c-1.664063 1.664063-3.847656 2.5-6.03125 2.5zm0 0"/><path d="m59.734375 366.933594c-2.1875 0-4.371094-.835938-6.035156-2.5l-17.066407-17.066406c-3.335937-3.335938-3.335937-8.730469 0-12.066407 3.335938-3.335937 8.730469-3.335937 12.066407 0l17.066406 17.066407c3.335937 3.335937 3.335937 8.730468 0 12.066406-1.664063 1.664062-3.847656 2.5-6.03125 2.5zm0 0"/><path d="m145.066406 332.800781c-2.183594 0-4.367187-.835937-6.03125-2.5-3.339844-3.335937-3.339844-8.730469 0-12.066406l17.066406-17.066406c3.335938-3.335938 8.726563-3.335938 12.066407 0 3.335937 3.335937 3.335937 8.730469 0 12.066406l-17.066407 17.066406c-1.664062 1.664063-3.851562 2.5-6.035156 2.5zm0 0"/><path d="m145.066406 366.933594c-2.183594 0-4.367187-.835938-6.03125-2.5l-17.066406-17.066406c-3.339844-3.335938-3.339844-8.730469 0-12.066407 3.335938-3.335937 8.726562-3.335937 12.0625 0l17.070312 17.066407c3.335938 3.335937 3.335938 8.730468 0 12.066406-1.664062 1.664062-3.851562 2.5-6.035156 2.5zm0 0"/><path d="m145.066406 256c-2.183594 0-4.367187-.835938-6.03125-2.5-3.339844-3.335938-3.339844-8.730469 0-12.066406l17.066406-17.066406c3.335938-3.335938 8.726563-3.335938 12.066407 0 3.335937 3.335937 3.335937 8.730468 0 12.066406l-17.066407 17.066406c-1.664062 1.664062-3.851562 2.5-6.035156 2.5zm0 0"/><path d="m145.066406 290.132812c-2.183594 0-4.367187-.835937-6.03125-2.5l-17.066406-17.066406c-3.339844-3.335937-3.339844-8.730468 0-12.066406 3.335938-3.335938 8.726562-3.335938 12.0625 0l17.070312 17.066406c3.335938 3.335938 3.335938 8.730469 0 12.066406-1.664062 1.664063-3.851562 2.5-6.035156 2.5zm0 0"/><path d="m221.867188 401.066406c-28.238282 0-51.199219-22.964844-51.199219-51.199218v-85.332032c0-28.238281 22.960937-51.203125 51.199219-51.203125 28.234374 0 51.199218 22.964844 51.199218 51.203125v85.332032c0 28.234374-22.964844 51.199218-51.199218 51.199218zm0-170.667968c-18.824219 0-34.132813 15.308593-34.132813 34.136718v85.332032c0 18.824218 15.308594 34.132812 34.132813 34.132812 18.824218 0 34.132812-15.308594 34.132812-34.132812v-85.332032c0-18.828125-15.308594-34.136718-34.132812-34.136718zm0 0"/><path d="m221.867188 358.398438c-2.183594 0-4.371094-.835938-6.035157-2.5-3.335937-3.335938-3.335937-8.726563 0-12.066407l17.066407-17.066406c3.339843-3.335937 8.730468-3.335937 12.066406 0 3.339844 3.335937 3.339844 8.730469 0 12.066406l-17.066406 17.066407c-1.664063 1.664062-3.847657 2.5-6.03125 2.5zm0 0"/><path d="m221.867188 230.398438c-4.710938 0-8.535157-3.820313-8.535157-8.53125v-136.535157c0-4.710937 3.824219-8.53125 8.535157-8.53125 4.710937 0 8.53125 3.820313 8.53125 8.53125v136.535157c0 4.710937-3.820313 8.53125-8.53125 8.53125zm0 0"/><path d="m221.867188 230.398438c-2.183594 0-4.371094-.835938-6.035157-2.5-3.335937-3.335938-3.335937-8.726563 0-12.066407l17.066407-17.066406c3.339843-3.335937 8.730468-3.335937 12.066406 0 3.339844 3.335937 3.339844 8.730469 0 12.066406l-17.066406 17.066407c-1.664063 1.664062-3.847657 2.5-6.03125 2.5zm0 0"/><path d="m221.867188 153.601562c-2.183594 0-4.371094-.835937-6.035157-2.5-3.335937-3.339843-3.335937-8.730468 0-12.066406l17.066407-17.066406c3.339843-3.339844 8.730468-3.339844 12.066406 0 3.339844 3.335938 3.339844 8.726562 0 12.0625l-17.066406 17.070312c-1.664063 1.664063-3.847657 2.5-6.03125 2.5zm0 0"/><path d="m221.867188 187.734375c-2.183594 0-4.371094-.835937-6.035157-2.5l-17.066406-17.066406c-3.335937-3.339844-3.335937-8.730469 0-12.066407 3.335937-3.335937 8.730469-3.335937 12.066406 0l17.066407 17.066407c3.335937 3.335937 3.335937 8.730469 0 12.066406-1.664063 1.664063-3.847657 2.5-6.03125 2.5zm0 0"/><path d="m102.390625 246.597656c-2.023437 0-4.011719-.710937-5.5625-2.023437-1.859375-1.585938-3.003906-3.882813-3.046875-6.324219-.417969-20.675781-19.933594-36.957031-40.796875-32.757812-2.46875.503906-5.027344-.113282-7.007813-1.683594-1.96875-1.570313-3.148437-3.914063-3.214843-6.441406-.042969 0-.09375-.546876-.09375-1.101563v-110.933594c0-28.234375 22.960937-51.199219 51.199219-51.199219 28.234374 0 51.199218 22.964844 51.199218 51.199219v26.472657c0 4.050781-2.851562 7.542968-6.816406 8.351562-15.832031 3.246094-27.316406 17.316406-27.316406 33.445312v84.460938c0 4.25-3.125 7.84375-7.320313 8.449219-.410156.058593-.820312.085937-1.222656.085937zm-42.65625-58.863281c13.046875 0 25.042969 5.015625 34.132813 13.234375v-47.367188c0-21.8125 13.996093-41.097656 34.132812-48.257812v-20.011719c0-18.824219-15.308594-34.132812-34.132812-34.132812-18.824219 0-34.132813 15.308593-34.132813 34.132812zm0 0"/><path d="m59.734375 430.328125c-4.710937 0-8.535156-3.824219-8.535156-8.535156v-148.726563c0-4.710937 3.824219-8.53125 8.535156-8.53125s8.53125 3.820313 8.53125 8.53125v148.726563c0 4.710937-3.820313 8.535156-8.53125 8.535156zm0 0"/><path d="m452.265625 401.066406c-28.234375 0-51.199219-22.964844-51.199219-51.199218v-110.933594c0-28.238282 22.964844-51.199219 51.199219-51.199219 28.238281 0 51.199219 22.960937 51.199219 51.199219v110.933594c0 28.234374-22.960938 51.199218-51.199219 51.199218zm0-196.265625c-18.824219 0-34.132813 15.308594-34.132813 34.132813v110.933594c0 18.824218 15.308594 34.132812 34.132813 34.132812s34.132813-15.308594 34.132813-34.132812v-110.933594c0-18.824219-15.308594-34.132813-34.132813-34.132813zm0 0"/><path d="m452.265625 332.800781c-2.183594 0-4.367187-.835937-6.03125-2.5l-17.066406-17.066406c-3.335938-3.335937-3.335938-8.730469 0-12.066406 3.335937-3.335938 8.730469-3.335938 12.066406 0l17.066406 17.066406c3.335938 3.335937 3.335938 8.730469 0 12.066406-1.664062 1.664063-3.847656 2.5-6.035156 2.5zm0 0"/><path d="m452.265625 366.933594c-2.183594 0-4.367187-.835938-6.03125-2.5-3.335937-3.335938-3.335937-8.730469 0-12.066406l17.066406-17.066407c3.335938-3.335937 8.730469-3.335937 12.066407 0 3.335937 3.335938 3.335937 8.730469 0 12.066407l-17.066407 17.066406c-1.664062 1.664062-3.847656 2.5-6.035156 2.5zm0 0"/><path d="m366.933594 401.066406c-28.238282 0-51.199219-22.964844-51.199219-51.199218v-196.265626c0-28.238281 22.960937-51.203124 51.199219-51.203124 28.238281 0 51.199218 22.964843 51.199218 51.203124v196.265626c0 28.234374-22.960937 51.199218-51.199218 51.199218zm0-281.601562c-18.824219 0-34.132813 15.3125-34.132813 34.136718v196.265626c0 18.824218 15.308594 34.132812 34.132813 34.132812 18.824218 0 34.132812-15.308594 34.132812-34.132812v-196.265626c0-18.824218-15.308594-34.136718-34.132812-34.136718zm0 0"/><path d="m366.933594 477.867188c-4.710938 0-8.535156-3.824219-8.535156-8.535157v-281.597656c0-4.710937 3.824218-8.535156 8.535156-8.535156 4.710937 0 8.53125 3.824219 8.53125 8.535156v281.597656c0 4.710938-3.820313 8.535157-8.53125 8.535157zm0 0"/><path d="m366.933594 332.800781c-2.183594 0-4.371094-.835937-6.035156-2.5l-17.066407-17.066406c-3.335937-3.335937-3.335937-8.730469 0-12.066406 3.339844-3.335938 8.730469-3.335938 12.066407 0l17.066406 17.066406c3.339844 3.335937 3.339844 8.730469 0 12.066406-1.664063 1.664063-3.847656 2.5-6.03125 2.5zm0 0"/><path d="m366.933594 366.933594c-2.183594 0-4.371094-.835938-6.035156-2.5-3.335938-3.335938-3.335938-8.730469 0-12.066406l17.070312-17.066407c3.335938-3.335937 8.726562-3.335937 12.0625 0 3.339844 3.335938 3.339844 8.730469 0 12.066407l-17.066406 17.066406c-1.664063 1.664062-3.847656 2.5-6.03125 2.5zm0 0"/><path d="m366.933594 256c-2.183594 0-4.371094-.835938-6.035156-2.5l-17.066407-17.066406c-3.335937-3.335938-3.335937-8.730469 0-12.066406 3.339844-3.335938 8.730469-3.335938 12.066407 0l17.066406 17.066406c3.339844 3.335937 3.339844 8.730468 0 12.066406-1.664063 1.664062-3.847656 2.5-6.03125 2.5zm0 0"/><path d="m366.933594 290.132812c-2.183594 0-4.371094-.835937-6.035156-2.5-3.335938-3.335937-3.335938-8.730468 0-12.066406l17.070312-17.066406c3.335938-3.335938 8.726562-3.335938 12.0625 0 3.339844 3.335938 3.339844 8.730469 0 12.066406l-17.066406 17.066406c-1.664063 1.664063-3.847656 2.5-6.03125 2.5zm0 0"/><path d="m298.667969 426.667969c-4.710938 0-8.535157-3.824219-8.535157-8.535157v-230.398437c0-4.710937 3.824219-8.535156 8.535157-8.535156 4.710937 0 8.53125 3.824219 8.53125 8.535156v230.398437c0 4.710938-3.820313 8.535157-8.53125 8.535157zm0 0"/><path d="m298.667969 332.800781c-2.1875 0-4.371094-.835937-6.035157-2.5l-17.066406-17.066406c-3.335937-3.335937-3.335937-8.730469 0-12.066406 3.335938-3.335938 8.730469-3.335938 12.066406 0l17.066407 17.066406c3.335937 3.335937 3.335937 8.730469 0 12.066406-1.664063 1.664063-3.847657 2.5-6.03125 2.5zm0 0"/><path d="m298.667969 256c-2.1875 0-4.371094-.835938-6.035157-2.5l-17.066406-17.066406c-3.335937-3.335938-3.335937-8.730469 0-12.066406 3.335938-3.335938 8.730469-3.335938 12.066406 0l17.066407 17.066406c3.335937 3.335937 3.335937 8.730468 0 12.066406-1.664063 1.664062-3.847657 2.5-6.03125 2.5zm0 0"/><path d="m409.683594 246.605469c-.398438 0-.800782-.027344-1.210938-.085938-4.199218-.597656-7.40625-4.207031-7.40625-8.457031v-84.460938c0-16.128906-11.484375-30.199218-27.316406-33.445312-3.964844-.808594-6.816406-4.308594-6.816406-8.351562v-26.472657c0-28.234375 22.964844-51.199219 51.199218-51.199219 28.238282 0 51.199219 22.964844 51.199219 51.199219v110.933594c0 .417969-.074219 1.28125-.136719 1.699219-.074218 2.515625-1.234374 4.574218-3.199218 6.144531-1.960938 1.570313-4.503906 1.886719-6.980469 1.382813-20.863281-4.226563-40.371094 12.082031-40.796875 32.757812-.050781 2.441406-1.144531 4.746094-3.011719 6.332031-1.546875 1.316407-3.507812 2.023438-5.523437 2.023438zm-25.683594-141.261719c20.136719 7.160156 34.132812 26.445312 34.132812 48.257812v47.367188c9.089844-8.21875 21.085938-13.234375 34.132813-13.234375h.042969l-.042969-102.402344c0-18.824219-15.308594-34.132812-34.132813-34.132812-18.824218 0-34.132812 15.308593-34.132812 34.132812zm0 0"/><path d="m452.265625 430.328125c-4.710937 0-8.53125-3.824219-8.53125-8.535156v-148.726563c0-4.710937 3.820313-8.53125 8.53125-8.53125s8.535156 3.820313 8.535156 8.53125v148.726563c0 4.710937-3.824219 8.535156-8.535156 8.535156zm0 0"/><path d="m256 247.800781c-2.644531 0-5.207031-1.238281-6.851562-3.441406-6.589844-8.875-16.53125-13.960937-27.28125-13.960937-10.753907 0-20.695313 5.078124-27.289063 13.9375-2.195313 2.953124-6.042969 4.15625-9.53125 3.003906-3.492187-1.152344-5.847656-4.421875-5.847656-8.097656v-85.640626c0-7.195312-2.363281-14.183593-6.84375-20.199218-1.101563-1.476563-1.6875-3.261719-1.6875-5.09375v-77.109375c0-28.234375 22.960937-51.199219 51.199219-51.199219 28.234374 0 51.199218 22.964844 51.199218 51.199219v111.242187c0 1.832032-.589844 3.617188-1.6875 5.09375-4.480468 6.015625-6.84375 13.003906-6.84375 20.199219v51.53125c0 3.679687-2.355468 6.945313-5.855468 8.097656-.878907.292969-1.785157.4375-2.679688.4375zm-34.132812-34.46875c9.171874 0 17.9375 2.433594 25.597656 6.949219v-32.546875c0-9.941406 2.945312-19.558594 8.535156-27.992187v-108.542969c0-18.824219-15.308594-34.132813-34.132812-34.132813-18.824219 0-34.132813 15.308594-34.132813 34.132813v74.410156c5.589844 8.433594 8.53125 18.050781 8.53125 27.992187v66.667969c7.664063-4.503906 16.425781-6.9375 25.601563-6.9375zm0 0"/><path d="m145.066406 401.066406c-28.238281 0-51.199218-22.964844-51.199218-51.199218v-196.265626c0-28.238281 22.960937-51.203124 51.199218-51.203124 28.238282 0 51.199219 22.964843 51.199219 51.203124v85.640626c0 1.832031-.585937 3.617187-1.6875 5.09375-4.480469 6.015624-6.84375 13.003906-6.84375 20.199218v85.332032c0 4.890624 1.152344 9.777343 3.429687 14.539062 1.117188 2.332031 1.117188 5.035156 0 7.367188-8.515624 17.789062-26.617187 29.292968-46.097656 29.292968zm0-281.601562c-18.824218 0-34.132812 15.3125-34.132812 34.136718v196.265626c0 18.824218 15.308594 34.132812 34.132812 34.132812 11.734375 0 22.734375-6.316406 28.929688-16.359375-2.210938-5.792969-3.328125-11.75-3.328125-17.773437v-85.332032c0-9.941406 2.941406-19.558594 8.53125-27.992187v-82.941407c0-18.824218-15.308594-34.136718-34.132813-34.136718zm0 0"/><path d="m298.667969 401.066406c-19.492188 0-37.582031-11.503906-46.097657-29.292968-1.117187-2.332032-1.117187-5.035157 0-7.367188 2.277344-4.761719 3.429688-9.660156 3.429688-14.539062v-85.332032c0-7.195312-2.363281-14.183594-6.84375-20.199218-1.101562-1.476563-1.691406-3.261719-1.691406-5.09375v-51.507813c0-28.238281 22.964844-51.199219 51.203125-51.199219 11.039062 0 21.683593 3.632813 30.753906 10.519532 2.132813 1.613281 3.378906 4.128906 3.378906 6.800781v196.011719c0 7.191406 2.363281 14.171874 6.84375 20.199218 2.253907 3.019532 2.253907 7.15625 0 10.1875-9.847656 13.226563-24.78125 20.8125-40.976562 20.8125zm-28.9375-33.425781c6.203125 10.042969 17.203125 16.359375 28.9375 16.359375 8.847656 0 17.152343-3.449219 23.492187-9.601562-4.226562-7.566407-6.425781-15.929688-6.425781-24.53125v-191.488282c-5.257813-3.140625-11.085937-4.777344-17.066406-4.777344-18.824219 0-34.132813 15.308594-34.132813 34.132813v48.808594c5.585938 8.433593 8.53125 18.050781 8.53125 27.992187v85.332032c0 6.015624-1.117187 11.980468-3.335937 17.773437zm0 0"/><path d="m119.464844 477.867188h-110.929688c-4.710937 0-8.535156-3.824219-8.535156-8.535157 0-23.167969 11.84375-35.925781 33.355469-35.925781.835937 0 1.664062.054688 2.511719.15625 8.8125-15.71875 22.832031-23.960938 40.933593-23.960938 18.089844 0 32.109375 8.242188 40.933594 23.960938 6.535156-.792969 12.679687.535156 17.878906 2.746094 3.148438 1.339844 5.1875 4.4375 5.1875 7.851562 0 3.414063-2.046875 6.511719-5.1875 7.851563-2.09375.886719-7.613281 3.242187-7.613281 17.320312 0 4.710938-3.824219 8.535157-8.535156 8.535157zm-101.542969-17.066407h93.617187c.496094-3.21875 1.253907-6.058593 2.226563-8.550781-1.238281.078125-2.484375-.101562-3.652344-.554688-2.175781-.84375-3.90625-2.535156-4.792969-4.683593-5.769531-13.886719-14.832031-20.34375-28.519531-20.34375-13.695312 0-22.757812 6.457031-28.511719 20.332031-.894531 2.152344-2.628906 3.851562-4.792968 4.6875-2.167969.835938-4.59375.757812-6.707032-.230469-1.417968-.667969-2.535156-.992187-3.433593-.992187-7.875.011718-13.414063 1.945312-15.433594 10.335937zm0 0"/><path d="m366.933594 477.867188h-110.933594c-4.710938 0-8.535156-3.824219-8.535156-8.535157 0-14.078125-5.519532-16.433593-7.609375-17.3125-3.148438-1.339843-5.1875-4.4375-5.1875-7.851562 0-3.414063 2.046875-6.511719 5.1875-7.851563 5.1875-2.207031 11.304687-3.539062 17.875-2.746094 8.816406-15.726562 22.835937-23.96875 40.9375-23.96875 18.089843 0 32.109375 8.242188 40.933593 23.960938.835938-.101562 1.671876-.15625 2.507813-.15625 21.511719 0 33.355469 12.757812 33.355469 35.925781 0 4.710938-3.820313 8.535157-8.53125 8.535157zm-103.007813-17.066407h93.621094c-2.023437-8.390625-7.5625-10.324219-15.4375-10.324219-.894531 0-2.011719.324219-3.421875.980469-2.105469.996094-4.53125 1.074219-6.707031.230469-2.175781-.847656-3.90625-2.535156-4.796875-4.6875-5.765625-13.875-14.828125-20.332031-28.515625-20.332031-13.699219 0-22.757813 6.457031-28.511719 20.332031-.894531 2.152344-2.628906 3.851562-4.796875 4.6875-1.175781.449219-2.421875.628906-3.660156.554688.972656 2.5 1.734375 5.339843 2.226562 8.558593zm0 0"/><path d="m145.066406 450.585938c-4.710937 0-8.53125-3.824219-8.53125-8.535157v-254.316406c0-4.710937 3.820313-8.535156 8.53125-8.535156 4.710938 0 8.535156 3.824219 8.535156 8.535156v254.316406c0 4.710938-3.824218 8.535157-8.535156 8.535157zm0 0"/><path d="m221.867188 447.648438c-4.710938 0-8.535157-3.820313-8.535157-8.53125v-140.449219c0-4.710938 3.824219-8.535157 8.535157-8.535157 4.710937 0 8.53125 3.824219 8.53125 8.535157v140.449219c0 4.71875-3.820313 8.53125-8.53125 8.53125zm0 0"/></svg>